<svg width="196" height="196" viewBox="0 0 196 196" fill="none" xmlns="http://www.w3.org/2000/svg">
<path d="M83.7267 6.03057C84.0581 5.70586 84.2238 5.54351 84.3675 5.40827C92.0255 -1.80276 103.975 -1.80276 111.633 5.40827C111.776 5.54351 111.942 5.70586 112.273 6.03057C112.472 6.22541 112.572 6.32284 112.666 6.41304C117.566 11.0897 124.51 12.9502 131.092 11.3503C131.219 11.3195 131.354 11.2848 131.624 11.2155C132.073 11.1 132.298 11.0422 132.49 10.9969C142.727 8.581 153.076 14.5556 156.102 24.6295C156.159 24.8184 156.221 25.0419 156.346 25.4888C156.421 25.757 156.458 25.891 156.495 26.0164C158.4 32.5166 163.483 37.5998 169.984 39.5053C170.109 39.5421 170.243 39.5795 170.511 39.6543C170.958 39.7789 171.182 39.8412 171.371 39.898C181.444 42.9245 187.419 53.2727 185.003 63.5103C184.958 63.7023 184.9 63.927 184.785 64.3763C184.715 64.646 184.681 64.7808 184.65 64.9077C183.05 71.4898 184.91 78.4336 189.587 83.3339C189.677 83.4284 189.775 83.5279 189.969 83.7267C190.294 84.0581 190.457 84.2238 190.592 84.3675C197.803 92.0255 197.803 103.975 190.592 111.633C190.457 111.776 190.294 111.942 189.969 112.273C189.775 112.472 189.677 112.572 189.587 112.666C184.91 117.566 183.05 124.51 184.65 131.092C184.681 131.219 184.715 131.354 184.785 131.624C184.9 132.073 184.958 132.298 185.003 132.49C187.419 142.727 181.444 153.076 171.371 156.102C171.182 156.159 170.958 156.221 170.511 156.346C170.243 156.421 170.109 156.458 169.984 156.495C163.483 158.4 158.4 163.483 156.495 169.984C156.458 170.109 156.421 170.243 156.346 170.511C156.221 170.958 156.159 171.182 156.102 171.371C153.076 181.444 142.727 187.419 132.49 185.003C132.298 184.958 132.073 184.9 131.624 184.785C131.354 184.715 131.219 184.681 131.092 184.65C124.51 183.05 117.566 184.91 112.666 189.587C112.572 189.677 112.472 189.775 112.273 189.969C111.942 190.294 111.776 190.457 111.633 190.592C103.975 197.803 92.0255 197.803 84.3675 190.592C84.2238 190.457 84.0581 190.294 83.7267 189.969C83.5279 189.775 83.4284 189.677 83.3339 189.587C78.4336 184.91 71.4898 183.05 64.9077 184.65C64.7808 184.681 64.646 184.715 64.3763 184.785C63.927 184.9 63.7023 184.958 63.5103 185.003C53.2727 187.419 42.9245 181.444 39.898 171.371C39.8412 171.182 39.7789 170.958 39.6543 170.511C39.5795 170.243 39.5421 170.109 39.5053 169.984C37.5998 163.483 32.5166 158.4 26.0164 156.495C25.891 156.458 25.757 156.421 25.4888 156.346C25.0419 156.221 24.8184 156.159 24.6295 156.102C14.5556 153.076 8.581 142.727 10.9969 132.49C11.0422 132.298 11.1 132.073 11.2155 131.624C11.2848 131.354 11.3195 131.219 11.3503 131.092C12.9502 124.51 11.0897 117.566 6.41304 112.666C6.32284 112.572 6.22541 112.472 6.03057 112.273C5.70586 111.942 5.54351 111.776 5.40827 111.633C-1.80276 103.975 -1.80276 92.0255 5.40827 84.3675C5.54351 84.2238 5.70586 84.0581 6.03057 83.7267C6.22541 83.5279 6.32284 83.4284 6.41304 83.3339C11.0897 78.4336 12.9502 71.4898 11.3503 64.9077C11.3195 64.7808 11.2848 64.646 11.2155 64.3763C11.1 63.927 11.0422 63.7023 10.9969 63.5103C8.581 53.2727 14.5556 42.9245 24.6295 39.898C24.8184 39.8412 25.0419 39.7789 25.4888 39.6543C25.757 39.5795 25.891 39.5421 26.0164 39.5053C32.5166 37.5998 37.5998 32.5166 39.5053 26.0164C39.5421 25.891 39.5795 25.757 39.6543 25.4888C39.7789 25.0419 39.8412 24.8184 39.898 24.6295C42.9245 14.5556 53.2727 8.581 63.5103 10.9969C63.7023 11.0422 63.927 11.1 64.3763 11.2155C64.646 11.2848 64.7808 11.3195 64.9077 11.3503C71.4898 12.9502 78.4336 11.0897 83.3339 6.41304C83.4284 6.32284 83.5279 6.22541 83.7267 6.03057Z" fill="#36ACED"/>
</svg>
